<svg xmlns="http://www.w3.org/2000/svg" width="429.931" height="511.983" viewBox="0 0 429.931 511.983">
  <g id="a_logo" data-name="a logo" transform="translate(-710 -296)">
    <g id="Group_3" data-name="Group 3" transform="translate(668.974 295.992)">
      <g id="Group_1" data-name="Group 1">
        <path id="Path_1" data-name="Path 1" d="M418.565,227.258C369.954,100.615,299.974,7.372,255.991,7.5c-43.982-.128-113.962,93.115-162.573,219.758C41.095,363.573,33.349,486.942,76.117,502.81c26.831,9.955,67.169-24.771,106.427-85.688,18.2,5.171,43.582,8.381,71.664,8.381,29.659,0,56.306-3.58,74.662-9.27,39.436,61.465,80.034,96.58,106.995,86.577,42.769-15.868,35.023-139.237-17.3-275.552ZM253.859,369.838c-31.848,0-54.061-7.332-54.061-7.332A943.808,943.808,0,0,0,246.884,258.53q4.752-12.38,9.079-24.619,4.335,12.235,9.079,24.619A943.3,943.3,0,0,0,312.494,363.2s-23.943,6.641-58.635,6.641Z"/>
      </g>
      <g id="Group_2" data-name="Group 2">
        <path id="Path_2" data-name="Path 2" d="M418.565,227.258C369.954,100.615,299.974,7.372,255.992,7.5c-6.2-.018-12.906,1.817-20,5.337C279.264,34.3,336.8,118.453,378.565,227.259c48.705,126.887,58.776,242.539,25.443,270.73,11.82,6.384,22.637,8.243,31.858,4.822C478.634,486.942,470.888,363.573,418.565,227.258Z"/>
        <path id="Path_3" data-name="Path 3" d="M288.871,416.233c-14.126,4.378-33.173,7.5-54.714,8.709,6.48.366,13.183.561,20.051.561a336.161,336.161,0,0,0,39.265-2.229q-2.3-3.462-4.6-7.041Z"/>
      </g>
    </g>
    <g id="Group_4" data-name="Group 4" transform="translate(668.974 296)">
      <path id="Path_4" data-name="Path 4" d="M197.448,369.628c.954.315,23.733,7.71,56.412,7.71,35.306,0,59.622-6.632,60.639-6.914a7.629,7.629,0,0,0,4.616-10.751,942.979,942.979,0,0,1-56.082-128.266c-2.31-6.523-11.828-6.523-14.139,0q-11.788,33.276-25.9,65.669c-3.879,8.888,4.869,19.888,8.748,11,6.81-15.605,18.219-36.388,24.227-52.318A955.484,955.484,0,0,0,301.294,358a257.439,257.439,0,0,1-47.434,4.343,198.679,198.679,0,0,1-43.05-4.69c3.049-5.9,6.092-11.967,9.092-18.113,4.253-8.715-9.228-15.293-13.48-6.578-4.363,8.94-8.819,17.7-13.246,26.031q-2.81,7.3,4.272,10.639Z"/>
      <path id="Path_5" data-name="Path 5" d="M425.567,224.571c-8.1-21.1-16.987-41.777-26.42-61.464-4.19-8.746-17.718-2.263-13.527,6.481,9.26,19.327,17.989,39.634,25.944,60.357,40.368,105.168,55.293,207.976,36.294,250.008-3.75,8.3-8.663,13.622-14.6,15.825-21.8,8.088-60.3-24.722-98.074-83.6a7.5,7.5,0,0,0-8.533-3.113C308.332,414.746,281.928,418,254.208,418c-26.515,0-51.237-2.875-69.615-8.1a7.5,7.5,0,0,0-8.354,3.152c-37.565,58.29-75.839,90.761-97.514,82.719-5.938-2.2-10.851-7.527-14.6-15.825-19-42.032-4.074-144.839,36.294-250.008,23.152-60.316,52.288-115.587,82.041-155.633C210.473,36.61,237.233,15,255.943,15h.143c28.018,0,71.931,47.15,111.9,120.157,4.657,8.507,17.814,1.3,13.157-7.2C337.27,47.816,290.529,0,256.121,0H255.9c-30.5,0-63.315,35.536-85.479,65.367-30.544,41.11-60.377,97.649-84,159.2-42.351,110.335-56.8,215.448-35.959,261.561,6.5,14.387,18.636,25.85,35.212,25.848,27.829,0,63.42-30.425,100.2-86.219,18.947,4.685,42.946,7.242,68.342,7.242,26.551,0,52.157-2.9,71.394-8.029,36.964,56.307,72.73,87.01,100.7,87.009,16.584,0,28.72-11.455,35.227-25.851,20.842-46.113,6.392-151.226-35.959-261.561Z"/>
      <path id="Path_6" data-name="Path 6" d="M241.232,50.635a7.5,7.5,0,0,0-10.606.125c-1.995,2.042-49.245,50.82-82.4,120-4.083,8.519,9.358,15.183,13.527,6.482,32.042-66.86,79.131-115.519,79.6-116a7.5,7.5,0,0,0-.126-10.6Z"/>
    </g>
  </g>
</svg>
